HIERARCHY
ROOT Hips
{
 OFFSET 0.000000 0.000000 0.000000
 CHANNELS 6 Xposition Yposition Zposition Yrotation Xrotation Zrotation
 JOINT Chest
 {
  OFFSET 0.000000 9.585900 0.002600
  CHANNELS 3 Yrotation Xrotation Zrotation
  JOINT Chest2
  {
   OFFSET 0.000000 9.601200 -0.005300
   CHANNELS 3 Yrotation Xrotation Zrotation
   JOINT Chest3
   {
    OFFSET 0.000000 9.561800 0.000000
    CHANNELS 3 Yrotation Xrotation Zrotation
    JOINT Chest4
    {
     OFFSET 0.000000 9.552100 0.000000
     CHANNELS 3 Yrotation Xrotation Zrotation
     JOINT Neck
     {
      OFFSET 0.000000 14.453000 0.000000
      CHANNELS 3 Yrotation Xrotation Zrotation
      JOINT Head
      {
       OFFSET 0.000000 8.936500 -0.011300
       CHANNELS 3 Yrotation Xrotation Zrotation
       End Site
       {
        OFFSET 0.000000 17.073600 -0.006000
       }
      }
     }
     JOINT RightCollar
     {
      OFFSET -2.921100 9.558500 0.000000
      CHANNELS 3 Yrotation Xrotation Zrotation
      JOINT RightShoulder
      {
       OFFSET -13.519700 0.000000 0.000000
       CHANNELS 3 Yrotation Xrotation Zrotation
       JOINT RightElbow
       {
        OFFSET 0.000000 -29.696600 0.000000
        CHANNELS 3 Yrotation Xrotation Zrotation
        JOINT RightWrist
        {
         OFFSET 0.000000 -24.004700 0.000000
         CHANNELS 3 Yrotation Xrotation Zrotation
         End Site
         {
          OFFSET 0.000000 -17.728500 0.000000
         }
        }
       }
      }
     }
     JOINT LeftCollar
     {
      OFFSET 2.921100 9.558500 0.000000
      CHANNELS 3 Yrotation Xrotation Zrotation
      JOINT LeftShoulder
      {
       OFFSET 13.519700 0.000000 0.000000
       CHANNELS 3 Yrotation Xrotation Zrotation
       JOINT LeftElbow
       {
        OFFSET 0.000000 -29.696600 0.000000
        CHANNELS 3 Yrotation Xrotation Zrotation
        JOINT LeftWrist
        {
         OFFSET 0.000000 -24.004700 0.000000
         CHANNELS 3 Yrotation Xrotation Zrotation
         End Site
         {
          OFFSET 0.000000 -17.728500 0.000000
         }
        }
       }
      }
     }
    }
   }
  }
 }
 JOINT RightHip
 {
  OFFSET -7.771700 -0.012900 -0.001300
  CHANNELS 3 Yrotation Xrotation Zrotation
  JOINT RightKnee
  {
   OFFSET 0.000000 -40.869800 0.001200
   CHANNELS 3 Yrotation Xrotation Zrotation
   JOINT RightAnkle
   {
    OFFSET 0.000000 -39.717900 0.002100
    CHANNELS 3 Yrotation Xrotation Zrotation
    JOINT RightToe
    {
     OFFSET 0.000000 -4.965400 11.033500
     CHANNELS 3 Yrotation Xrotation Zrotation
     End Site
     {
      OFFSET 0.000000 -1.423100 5.872300
     }
    }
   }
  }
 }
 JOINT LeftHip
 {
  OFFSET 7.771700 -0.012900 -0.001300
  CHANNELS 3 Yrotation Xrotation Zrotation
  JOINT LeftKnee
  {
   OFFSET 0.000000 -40.869800 0.001200
   CHANNELS 3 Yrotation Xrotation Zrotation
   JOINT LeftAnkle
   {
    OFFSET 0.000000 -39.717900 0.002100
    CHANNELS 3 Yrotation Xrotation Zrotation
    JOINT LeftToe
    {
     OFFSET 0.000000 -4.965400 11.033500
     CHANNELS 3 Yrotation Xrotation Zrotation
     End Site
     {
      OFFSET 0.000000 -1.423100 5.872300
     }
    }
   }
  }
 }
}
MOTION
Frames: 16
Frame Time: 0.008333
-11.828694 57.952655 42.427597 -175.127425 -28.074885 -3.198229 1.147580 20.240630 3.287411 0.075859 2.592906 0.223738 0.122783 4.283012 0.328749 0.716450 17.525975 1.570814 -2.420057 11.694224 -1.684748 -4.005373 -14.170423 -2.211269 5.243267 -2.550435 -2.395165 15.235937 -20.868918 -16.544570 142.125461 -69.988884 -112.363551 12.699411 -17.510320 -49.411781 -8.999683 -5.463299 -1.946819 0.790238 -11.902869 1.032724 177.973458 -82.479714 148.778500 -8.328464 -13.046965 34.134817 5.555186 -42.206971 -3.619972 -0.195820 67.579928 -3.176459 4.233076 4.018457 8.251923 -0.065268 0.160913 -0.025212 -11.325024 -50.726975 1.340370 27.078147 70.873779 27.499780 -15.118577 25.617340 -0.951263 -0.093065 -14.285723 -4.210617
-11.822782 57.951940 42.426217 -175.133439 -28.091336 -3.173988 1.145872 20.252025 3.271956 0.078299 2.574123 0.242982 0.120525 4.279324 0.332067 0.718409 17.482367 1.605649 -2.491654 11.671271 -1.740354 -3.999949 -14.123913 -2.247027 5.236755 -2.490450 -2.436582 15.236409 -20.890005 -16.550239 142.134546 -69.985345 -112.360345 12.717642 -17.535618 -49.432361 -9.001759 -5.426493 -1.991900 0.797500 -11.905850 1.034684 178.493574 -82.409972 148.297535 -8.274405 -13.033445 34.089364 5.574420 -42.196684 -3.633367 -0.204152 67.595054 -3.197845 4.230211 4.012085 8.256426 -0.064174 0.160224 -0.025091 -11.306315 -50.712283 1.322381 27.081223 70.873175 27.488619 -15.097763 25.619742 -0.928700 -0.105768 -14.287560 -4.223569
-11.817087 57.950907 42.424910 -175.135973 -28.104751 -3.152601 1.147027 20.244176 3.278844 0.073543 2.570879 0.242301 0.121760 4.275349 0.334111 0.706610 17.485314 1.600182 -2.533686 11.628324 -1.758726 -4.005277 -14.101519 -2.274982 5.256427 -2.517043 -2.410131 15.229981 -20.855897 -16.581195 142.138468 -69.980627 -112.366562 12.721286 -17.543100 -49.425142 -8.997726 -5.423692 -1.997902 0.801815 -11.899771 1.029207 178.930854 -82.350772 147.890722 -8.263105 -13.027762 34.055917 5.594611 -42.190775 -3.645649 -0.207253 67.613151 -3.210471 4.203461 4.010801 8.254392 -0.066173 0.158747 -0.022888 -11.291875 -50.700215 1.305800 27.093846 70.871186 27.487840 -15.081215 25.617256 -0.904608 -0.123490 -14.286532 -4.237082
-11.811420 57.950382 42.422253 -175.149964 -28.125546 -3.128716 1.150241 20.242562 3.281684 0.079272 2.574332 0.240644 0.114555 4.266729 0.337630 0.701035 17.504739 1.582648 -2.558044 11.594287 -1.763304 -4.151003 -14.225810 -2.324850 5.263741 -2.541367 -2.387484 15.231622 -20.826253 -16.601716 142.205753 -69.918299 -112.461227 12.677935 -17.523242 -49.388981 -8.996476 -5.423331 -1.999837 0.806908 -11.905814 1.036528 179.290647 -82.298083 147.551698 -8.276639 -13.021321 34.032806 5.618451 -42.177240 -3.655208 -0.211106 67.628851 -3.224168 4.197376 4.005919 8.255679 -0.067612 0.156523 -0.021192 -11.299237 -50.671089 1.323643 27.097845 70.870443 27.459564 -15.096389 25.576466 -0.905687 -0.117523 -14.255391 -4.239451
-11.805719 57.950888 42.417399 -175.151922 -28.158780 -3.114008 1.160162 20.237673 3.322666 0.066643 2.605590 0.197002 0.120048 4.243350 0.360312 0.686945 17.497061 1.584085 -2.576649 11.616160 -1.795232 -4.276034 -14.339301 -2.351578 5.267281 -2.544801 -2.376420 15.244559 -20.816204 -16.626984 142.176997 -69.911269 -112.441935 12.649204 -17.506892 -49.363590 -8.999254 -5.416486 -2.003473 0.820196 -11.908988 1.034091 179.581323 -82.253717 147.286578 -8.227799 -13.006879 34.005944 5.629912 -42.148949 -3.661701 -0.214089 67.645986 -3.232993 4.195819 3.998601 8.255155 -0.073163 0.153823 -0.020880 -11.276599 -50.638661 1.300541 27.136155 70.875057 27.489579 -15.066128 25.552074 -0.877393 -0.148745 -14.242222 -4.246842
-11.801056 57.949664 42.415646 -175.152172 -28.170206 -3.094459 1.155817 20.229138 3.331754 0.066445 2.603785 0.197267 0.118532 4.240043 0.360856 0.680909 17.465963 1.609644 -2.655311 11.568100 -1.842884 -4.326602 -14.350610 -2.394718 5.262326 -2.518000 -2.393332 15.260964 -20.842266 -16.637491 142.099411 -69.913906 -112.364879 12.643574 -17.509235 -49.358295 -9.003827 -5.411074 -2.009311 0.847603 -11.929994 1.034384 179.703561 -82.236657 147.186718 -8.270450 -13.003023 33.979596 5.645709 -42.144020 -3.679483 -0.215727 67.662845 -3.240906 4.191646 3.992588 8.255779 -0.063061 0.153027 -0.021547 -11.269100 -50.622164 1.293655 27.127407 70.875249 27.465679 -15.056729 25.513423 -0.889883 -0.152975 -14.208730 -4.231229
-11.797731 57.948793 42.413242 -175.150237 -28.186269 -3.070390 1.146190 20.240636 3.312822 0.067176 2.586048 0.219393 0.115271 4.236170 0.361141 0.673497 17.451464 1.617257 -2.715471 11.531573 -1.875946 -4.397760 -14.391226 -2.428350 5.260554 -2.497694 -2.403438 15.269067 -20.821849 -16.652241 142.109288 -69.898685 -112.382226 12.686878 -17.568634 -49.394513 -9.002762 -5.381237 -2.044517 0.852215 -11.958235 1.055013 -179.924998 -82.182876 146.846458 -8.316666 -12.998391 33.955457 5.662020 -42.134001 -3.702848 -0.218095 67.681729 -3.252004 4.186911 3.983850 8.257865 -0.065873 0.153142 -0.022474 -11.249207 -50.602618 1.268834 27.115890 70.873211 27.445113 -15.057938 25.484368 -0.893414 -0.146976 -14.183393 -4.230782
-11.795291 57.947745 42.411286 -175.160984 -28.200970 -3.036939 1.140645 20.232358 3.306547 0.072221 2.561719 0.245655 0.113046 4.230512 0.362660 0.655638 17.489213 1.577483 -2.762127 11.486001 -1.886338 -4.490438 -14.449900 -2.454399 5.257663 -2.488113 -2.408265 15.270825 -20.879707 -16.640976 142.020021 -69.918976 -112.271580 12.700663 -17.575289 -49.412292 -9.003986 -5.390089 -2.027655 0.860948 -11.968429 1.051566 -179.571177 -82.121190 146.524928 -8.260427 -12.976094 33.924208 5.690435 -42.127267 -3.730198 -0.223286 67.700216 -3.268138 4.185692 3.976444 8.261333 -0.065480 0.153438 -0.023334 -11.228246 -50.580440 1.259470 27.073563 70.870541 27.380766 -15.083073 25.452270 -0.913800 -0.133598 -14.153407 -4.217535
-11.792124 57.947113 42.408804 -175.161330 -28.220038 -3.015140 1.140278 20.231397 3.311299 0.068120 2.558471 0.247592 0.111624 4.228414 0.363658 0.646453 17.499639 1.564034 -2.814592 11.440012 -1.896648 -4.593845 -14.510854 -2.480852 5.264907 -2.503637 -2.387736 15.270162 -20.869024 -16.656737 142.015322 -69.901669 -112.277602 12.692661 -17.573409 -49.415239 -9.017310 -5.420287 -1.983417 0.887330 -11.958049 1.022768 -179.246490 -82.057951 146.231131 -8.205271 -12.953494 33.891573 5.699936 -42.114482 -3.745969 -0.226506 67.717428 -3.281049 4.179064 3.969597 8.259348 -0.065715 0.153553 -0.022842 -11.206552 -50.559109 1.236257 27.073075 70.868443 27.371057 -15.084477 25.429945 -0.911248 -0.137806 -14.133943 -4.217450
-11.788134 57.947341 42.404943 -175.180737 -28.251258 -2.991941 1.153151 20.239620 3.322679 0.070670 2.556138 0.249519 0.110316 4.226321 0.364590 0.640304 17.497692 1.567803 -2.880606 11.406294 -1.926667 -4.710090 -14.570250 -2.508293 5.262080 -2.501703 -2.382438 15.271929 -20.880218 -16.667207 142.042813 -69.888906 -112.320486 12.674587 -17.554075 -49.395020 -9.030548 -5.418839 -1.989591 0.905454 -11.960221 1.018121 -178.882607 -81.993076 145.891670 -8.310264 -12.953813 33.875241 5.718737 -42.090775 -3.746032 -0.234385 67.731944 -3.301476 4.168379 3.966633 8.257456 -0.064424 0.151806 -0.021070 -11.172990 -50.525473 1.218779 27.090485 70.872757 27.377481 -15.067749 25.397322 -0.893874 -0.156047 -14.110282 -4.220715
-11.785703 57.946775 42.402654 -175.178988 -28.274237 -2.970423 1.150305 20.239565 3.330308 0.068539 2.553598 0.248623 0.108976 4.223597 0.365463 0.632909 17.497190 1.572930 -2.953731 11.371345 -1.960669 -4.840409 -14.626906 -2.536676 5.257729 -2.499527 -2.372455 15.274671 -20.889493 -16.680046 142.033173 -69.887092 -112.314147 12.658041 -17.536232 -49.371005 -9.045607 -5.416937 -1.997953 0.923200 -11.946488 0.998721 -178.423318 -81.920277 145.453818 -8.347629 -12.951834 33.861158 5.734717 -42.072394 -3.770497 -0.233598 67.747749 -3.303868 4.166668 3.956791 8.257452 -0.065672 0.154110 -0.023688 -11.149234 -50.501577 1.189924 27.080201 70.873634 27.358214 -15.056053 25.377757 -0.881869 -0.169593 -14.091333 -4.223626
-11.782822 57.945678 42.401363 -175.189598 -28.293991 -2.946591 1.153866 20.234407 3.335940 0.069481 2.565430 0.237658 0.113097 4.207971 0.382299 0.634794 17.464489 1.599914 -3.050668 11.367292 -2.017950 -4.984861 -14.682607 -2.567747 5.243979 -2.461645 -2.385508 15.273186 -20.892254 -16.687951 141.984239 -69.891436 -112.254374 12.655628 -17.532730 -49.373914 -9.069036 -5.387028 -2.030062 0.939097 -11.960399 0.998323 -178.139932 -81.887203 145.190242 -8.349750 -12.949061 33.843846 5.758653 -42.059399 -3.790330 -0.235310 67.761349 -3.308231 4.164542 3.950370 8.255761 -0.064715 0.155293 -0.022358 -11.115531 -50.484238 1.162490 27.070486 70.875335 27.344378 -15.043923 25.375470 -0.870076 -0.174544 -14.086805 -4.230559
-11.772503 57.946212 42.397206 -175.195554 -28.333448 -2.971652 1.188618 20.230216 3.427656 0.054527 2.594778 0.198087 0.115116 4.191245 0.400402 0.626911 17.451173 1.612812 -3.146283 11.345864 -2.066002 -5.143642 -14.737010 -2.602722 5.234187 -2.467984 -2.348943 15.295060 -20.859013 -16.730577 141.919528 -69.892920 -112.182060 12.668549 -17.536468 -49.403587 -9.081950 -5.376104 -2.048219 0.949711 -11.969009 0.997572 -177.911656 -81.866530 144.973442 -8.334745 -12.946042 33.835788 5.735394 -42.023446 -3.734342 -0.254866 67.762501 -3.330034 4.156747 3.957328 8.249138 -0.065363 0.149383 -0.020450 -11.135059 -50.439400 1.201145 27.059253 70.877329 27.328681 -14.990152 25.404141 -0.824899 -0.218961 -14.110020 -4.251276
-11.770208 57.944967 42.396009 -175.202807 -28.359811 -2.947109 1.195398 20.222937 3.448328 0.056097 2.579973 0.215178 0.104670 4.207899 0.377123 0.614547 17.446764 1.615859 -3.220545 11.333991 -2.107074 -5.339188 -14.802568 -2.637593 5.233678 -2.455804 -2.345667 15.308069 -20.859554 -16.739512 141.894774 -69.847234 -112.199636 12.628991 -17.520500 -49.370631 -9.085447 -5.370053 -2.055148 0.961392 -11.985505 0.995734 -177.833743 -81.876144 144.894789 -8.303152 -12.944497 33.838523 5.760034 -42.005012 -3.749636 -0.274752 67.778102 -3.356675 4.137813 3.956714 8.246553 -0.066358 0.148658 -0.019921 -11.110956 -50.416817 1.185837 27.032937 70.885940 27.278344 -14.967074 25.406951 -0.798592 -0.231435 -14.110130 -4.257052
-11.767951 57.943877 42.394343 -175.189467 -28.392291 -2.932210 1.179094 20.226939 3.458408 0.055027 2.578903 0.215774 0.101341 4.204462 0.377976 0.603599 17.441861 1.618734 -3.325979 11.309331 -2.153397 -5.521757 -14.848529 -2.680168 5.234995 -2.440472 -2.341965 15.325988 -20.861777 -16.752207 141.811262 -69.828552 -112.141209 12.614915 -17.518762 -49.373753 -9.083770 -5.359321 -2.061539 0.968112 -12.027712 1.014440 -178.102812 -81.933062 145.166512 -8.356351 -12.926509 33.852260 5.766188 -41.976522 -3.769158 -0.285305 67.793637 -3.369966 4.129168 3.947336 8.245000 -0.064402 0.150468 -0.019234 -11.097006 -50.389161 1.155451 27.024406 70.889128 27.259301 -14.950298 25.412569 -0.781019 -0.246486 -14.113074 -4.263149
-11.764766 57.941865 42.394234 -175.197504 -28.418637 -2.911443 1.183233 20.230652 3.465771 0.050019 2.593543 0.198926 0.104743 4.177752 0.403279 0.596435 17.437044 1.622704 -3.463931 11.271961 -2.205243 -5.693773 -14.874662 -2.730481 5.232149 -2.424182 -2.337246 15.346763 -20.866111 -16.767213 141.715841 -69.800748 -112.083841 12.587196 -17.513054 -49.362569 -9.083198 -5.347416 -2.071473 0.971275 -12.062919 1.034135 -178.181936 -81.975574 145.236537 -8.346051 -12.917898 33.849738 5.786291 -41.957550 -3.782480 -0.291614 67.805894 -3.381595 4.124782 3.942265 8.246493 -0.067391 0.152364 -0.019817 -11.069221 -50.367523 1.132192 27.014684 70.892001 27.243786 -14.944940 25.419737 -0.770928 -0.251171 -14.119416 -4.269969
